<mxfile host="app.diagrams.net" modified="2023-10-13T17:05:42.631Z" agent="Mozilla/5.0 (Windows NT 10.0; Win64; x64) AppleWebKit/537.36 (KHTML, like Gecko) Chrome/118.0.0.0 Safari/537.36" etag="Iib39CWi7ayaQ4E7cIfx" version="22.0.4" type="device">
  <diagram name="Page-1" id="Cu0N39KmQ-wRoURFbfN_">
    <mxGraphModel dx="3093" dy="1991" grid="1" gridSize="10" guides="1" tooltips="1" connect="1" arrows="1" fold="1" page="1" pageScale="1" pageWidth="827" pageHeight="1169" math="0" shadow="0">
      <root>
        <mxCell id="0" />
        <mxCell id="1" parent="0" />
        <mxCell id="KM9MwKzlFiGGRbuaxU7h-9" value="" style="edgeStyle=orthogonalEdgeStyle;rounded=0;orthogonalLoop=1;jettySize=auto;html=1;entryX=0.5;entryY=1;entryDx=0;entryDy=0;" parent="1" source="dBQZkuX5FvPiXk4gj8YH-4" target="NCwgtCWluAgkvSBHD4w2-7" edge="1">
          <mxGeometry relative="1" as="geometry">
            <mxPoint x="145" y="-30" as="targetPoint" />
          </mxGeometry>
        </mxCell>
        <mxCell id="KM9MwKzlFiGGRbuaxU7h-14" style="edgeStyle=orthogonalEdgeStyle;rounded=0;orthogonalLoop=1;jettySize=auto;html=1;" parent="1" source="dBQZkuX5FvPiXk4gj8YH-4" target="NCwgtCWluAgkvSBHD4w2-8" edge="1">
          <mxGeometry relative="1" as="geometry" />
        </mxCell>
        <mxCell id="KM9MwKzlFiGGRbuaxU7h-15" style="edgeStyle=orthogonalEdgeStyle;rounded=0;orthogonalLoop=1;jettySize=auto;html=1;" parent="1" source="dBQZkuX5FvPiXk4gj8YH-4" target="NCwgtCWluAgkvSBHD4w2-11" edge="1">
          <mxGeometry relative="1" as="geometry" />
        </mxCell>
        <mxCell id="KM9MwKzlFiGGRbuaxU7h-16" style="edgeStyle=orthogonalEdgeStyle;rounded=0;orthogonalLoop=1;jettySize=auto;html=1;" parent="1" source="dBQZkuX5FvPiXk4gj8YH-4" target="NCwgtCWluAgkvSBHD4w2-24" edge="1">
          <mxGeometry relative="1" as="geometry" />
        </mxCell>
        <mxCell id="KM9MwKzlFiGGRbuaxU7h-18" style="edgeStyle=orthogonalEdgeStyle;rounded=0;orthogonalLoop=1;jettySize=auto;html=1;entryX=1;entryY=0.5;entryDx=0;entryDy=0;" parent="1" source="dBQZkuX5FvPiXk4gj8YH-4" target="NCwgtCWluAgkvSBHD4w2-10" edge="1">
          <mxGeometry relative="1" as="geometry" />
        </mxCell>
        <mxCell id="dBQZkuX5FvPiXk4gj8YH-4" value="Klient" style="rounded=0;whiteSpace=wrap;html=1;fillColor=#ffe6cc;strokeColor=#d79b00;" parent="1" vertex="1">
          <mxGeometry x="110" y="90" width="70" height="30" as="geometry" />
        </mxCell>
        <mxCell id="NCwgtCWluAgkvSBHD4w2-55" style="edgeStyle=orthogonalEdgeStyle;rounded=0;orthogonalLoop=1;jettySize=auto;html=1;entryX=0.5;entryY=0;entryDx=0;entryDy=0;" parent="1" source="NCwgtCWluAgkvSBHD4w2-2" target="NCwgtCWluAgkvSBHD4w2-34" edge="1">
          <mxGeometry relative="1" as="geometry" />
        </mxCell>
        <mxCell id="KM9MwKzlFiGGRbuaxU7h-1" value="" style="edgeStyle=orthogonalEdgeStyle;rounded=0;orthogonalLoop=1;jettySize=auto;html=1;" parent="1" source="NCwgtCWluAgkvSBHD4w2-2" target="NCwgtCWluAgkvSBHD4w2-27" edge="1">
          <mxGeometry relative="1" as="geometry" />
        </mxCell>
        <mxCell id="KM9MwKzlFiGGRbuaxU7h-2" value="" style="edgeStyle=orthogonalEdgeStyle;rounded=0;orthogonalLoop=1;jettySize=auto;html=1;" parent="1" source="NCwgtCWluAgkvSBHD4w2-2" target="NCwgtCWluAgkvSBHD4w2-28" edge="1">
          <mxGeometry relative="1" as="geometry" />
        </mxCell>
        <mxCell id="KM9MwKzlFiGGRbuaxU7h-3" value="" style="edgeStyle=orthogonalEdgeStyle;rounded=0;orthogonalLoop=1;jettySize=auto;html=1;" parent="1" source="NCwgtCWluAgkvSBHD4w2-2" target="NCwgtCWluAgkvSBHD4w2-29" edge="1">
          <mxGeometry relative="1" as="geometry" />
        </mxCell>
        <mxCell id="NCwgtCWluAgkvSBHD4w2-2" value="Zamowienia" style="rounded=0;whiteSpace=wrap;html=1;fillColor=#ffe6cc;strokeColor=#d79b00;" parent="1" vertex="1">
          <mxGeometry x="430" y="105" width="90" height="30" as="geometry" />
        </mxCell>
        <mxCell id="NCwgtCWluAgkvSBHD4w2-57" style="edgeStyle=orthogonalEdgeStyle;rounded=0;orthogonalLoop=1;jettySize=auto;html=1;entryX=1;entryY=0.5;entryDx=0;entryDy=0;" parent="1" source="NCwgtCWluAgkvSBHD4w2-3" target="NCwgtCWluAgkvSBHD4w2-42" edge="1">
          <mxGeometry relative="1" as="geometry" />
        </mxCell>
        <mxCell id="NCwgtCWluAgkvSBHD4w2-68" style="edgeStyle=orthogonalEdgeStyle;rounded=0;orthogonalLoop=1;jettySize=auto;html=1;entryX=0.5;entryY=1;entryDx=0;entryDy=0;" parent="1" source="NCwgtCWluAgkvSBHD4w2-3" target="NCwgtCWluAgkvSBHD4w2-64" edge="1">
          <mxGeometry relative="1" as="geometry" />
        </mxCell>
        <mxCell id="NCwgtCWluAgkvSBHD4w2-69" style="edgeStyle=orthogonalEdgeStyle;rounded=0;orthogonalLoop=1;jettySize=auto;html=1;" parent="1" source="NCwgtCWluAgkvSBHD4w2-3" target="NCwgtCWluAgkvSBHD4w2-65" edge="1">
          <mxGeometry relative="1" as="geometry" />
        </mxCell>
        <mxCell id="NCwgtCWluAgkvSBHD4w2-70" style="edgeStyle=orthogonalEdgeStyle;rounded=0;orthogonalLoop=1;jettySize=auto;html=1;entryX=0.5;entryY=0;entryDx=0;entryDy=0;" parent="1" source="NCwgtCWluAgkvSBHD4w2-3" target="NCwgtCWluAgkvSBHD4w2-66" edge="1">
          <mxGeometry relative="1" as="geometry" />
        </mxCell>
        <mxCell id="NCwgtCWluAgkvSBHD4w2-3" value="Artykuly" style="rounded=0;whiteSpace=wrap;html=1;fillColor=#ffe6cc;strokeColor=#d79b00;" parent="1" vertex="1">
          <mxGeometry x="680" y="330" width="90" height="30" as="geometry" />
        </mxCell>
        <mxCell id="NCwgtCWluAgkvSBHD4w2-59" style="edgeStyle=orthogonalEdgeStyle;rounded=0;orthogonalLoop=1;jettySize=auto;html=1;entryX=0.5;entryY=1;entryDx=0;entryDy=0;" parent="1" source="NCwgtCWluAgkvSBHD4w2-4" target="NCwgtCWluAgkvSBHD4w2-47" edge="1">
          <mxGeometry relative="1" as="geometry" />
        </mxCell>
        <mxCell id="NCwgtCWluAgkvSBHD4w2-72" style="edgeStyle=orthogonalEdgeStyle;rounded=0;orthogonalLoop=1;jettySize=auto;html=1;entryX=0.5;entryY=0;entryDx=0;entryDy=0;" parent="1" source="NCwgtCWluAgkvSBHD4w2-4" target="NCwgtCWluAgkvSBHD4w2-71" edge="1">
          <mxGeometry relative="1" as="geometry" />
        </mxCell>
        <mxCell id="NCwgtCWluAgkvSBHD4w2-78" style="edgeStyle=orthogonalEdgeStyle;rounded=0;orthogonalLoop=1;jettySize=auto;html=1;" parent="1" source="NCwgtCWluAgkvSBHD4w2-4" target="NCwgtCWluAgkvSBHD4w2-73" edge="1">
          <mxGeometry relative="1" as="geometry" />
        </mxCell>
        <mxCell id="NCwgtCWluAgkvSBHD4w2-79" value="" style="edgeStyle=orthogonalEdgeStyle;rounded=0;orthogonalLoop=1;jettySize=auto;html=1;" parent="1" source="NCwgtCWluAgkvSBHD4w2-4" target="NCwgtCWluAgkvSBHD4w2-75" edge="1">
          <mxGeometry relative="1" as="geometry" />
        </mxCell>
        <mxCell id="NCwgtCWluAgkvSBHD4w2-80" value="" style="edgeStyle=orthogonalEdgeStyle;rounded=0;orthogonalLoop=1;jettySize=auto;html=1;" parent="1" source="NCwgtCWluAgkvSBHD4w2-4" target="NCwgtCWluAgkvSBHD4w2-74" edge="1">
          <mxGeometry relative="1" as="geometry" />
        </mxCell>
        <mxCell id="NCwgtCWluAgkvSBHD4w2-81" value="" style="edgeStyle=orthogonalEdgeStyle;rounded=0;orthogonalLoop=1;jettySize=auto;html=1;" parent="1" source="NCwgtCWluAgkvSBHD4w2-4" target="NCwgtCWluAgkvSBHD4w2-76" edge="1">
          <mxGeometry relative="1" as="geometry" />
        </mxCell>
        <mxCell id="NCwgtCWluAgkvSBHD4w2-4" value="Pudelka" style="rounded=0;whiteSpace=wrap;html=1;fillColor=#ffe6cc;strokeColor=#d79b00;" parent="1" vertex="1">
          <mxGeometry x="418" y="555" width="90" height="30" as="geometry" />
        </mxCell>
        <mxCell id="NCwgtCWluAgkvSBHD4w2-62" style="edgeStyle=orthogonalEdgeStyle;rounded=0;orthogonalLoop=1;jettySize=auto;html=1;entryX=1;entryY=0.5;entryDx=0;entryDy=0;" parent="1" source="NCwgtCWluAgkvSBHD4w2-5" target="NCwgtCWluAgkvSBHD4w2-45" edge="1">
          <mxGeometry relative="1" as="geometry" />
        </mxCell>
        <mxCell id="NCwgtCWluAgkvSBHD4w2-83" value="" style="edgeStyle=orthogonalEdgeStyle;rounded=0;orthogonalLoop=1;jettySize=auto;html=1;" parent="1" source="NCwgtCWluAgkvSBHD4w2-5" target="NCwgtCWluAgkvSBHD4w2-82" edge="1">
          <mxGeometry relative="1" as="geometry" />
        </mxCell>
        <mxCell id="NCwgtCWluAgkvSBHD4w2-85" value="" style="edgeStyle=orthogonalEdgeStyle;rounded=0;orthogonalLoop=1;jettySize=auto;html=1;" parent="1" source="NCwgtCWluAgkvSBHD4w2-5" target="NCwgtCWluAgkvSBHD4w2-84" edge="1">
          <mxGeometry relative="1" as="geometry" />
        </mxCell>
        <mxCell id="NCwgtCWluAgkvSBHD4w2-88" value="" style="edgeStyle=orthogonalEdgeStyle;rounded=0;orthogonalLoop=1;jettySize=auto;html=1;" parent="1" source="NCwgtCWluAgkvSBHD4w2-5" target="NCwgtCWluAgkvSBHD4w2-87" edge="1">
          <mxGeometry relative="1" as="geometry" />
        </mxCell>
        <mxCell id="NCwgtCWluAgkvSBHD4w2-5" value="Zawartosc" style="rounded=0;whiteSpace=wrap;html=1;fillColor=#ffe6cc;strokeColor=#d79b00;" parent="1" vertex="1">
          <mxGeometry x="160" y="372.5" width="90" height="30" as="geometry" />
        </mxCell>
        <mxCell id="iAlGHAtXpQ0TuP4XQjKk-2" style="edgeStyle=orthogonalEdgeStyle;rounded=0;orthogonalLoop=1;jettySize=auto;html=1;" edge="1" parent="1" source="NCwgtCWluAgkvSBHD4w2-6" target="iAlGHAtXpQ0TuP4XQjKk-1">
          <mxGeometry relative="1" as="geometry" />
        </mxCell>
        <mxCell id="iAlGHAtXpQ0TuP4XQjKk-6" style="edgeStyle=orthogonalEdgeStyle;rounded=0;orthogonalLoop=1;jettySize=auto;html=1;entryX=0.5;entryY=1;entryDx=0;entryDy=0;" edge="1" parent="1" source="NCwgtCWluAgkvSBHD4w2-6" target="iAlGHAtXpQ0TuP4XQjKk-3">
          <mxGeometry relative="1" as="geometry" />
        </mxCell>
        <mxCell id="iAlGHAtXpQ0TuP4XQjKk-8" style="edgeStyle=orthogonalEdgeStyle;rounded=0;orthogonalLoop=1;jettySize=auto;html=1;" edge="1" parent="1" source="NCwgtCWluAgkvSBHD4w2-6" target="iAlGHAtXpQ0TuP4XQjKk-5">
          <mxGeometry relative="1" as="geometry" />
        </mxCell>
        <mxCell id="iAlGHAtXpQ0TuP4XQjKk-13" style="edgeStyle=orthogonalEdgeStyle;rounded=0;orthogonalLoop=1;jettySize=auto;html=1;" edge="1" parent="1" source="NCwgtCWluAgkvSBHD4w2-6" target="iAlGHAtXpQ0TuP4XQjKk-9">
          <mxGeometry relative="1" as="geometry" />
        </mxCell>
        <mxCell id="iAlGHAtXpQ0TuP4XQjKk-14" style="edgeStyle=orthogonalEdgeStyle;rounded=0;orthogonalLoop=1;jettySize=auto;html=1;" edge="1" parent="1" source="NCwgtCWluAgkvSBHD4w2-6" target="iAlGHAtXpQ0TuP4XQjKk-10">
          <mxGeometry relative="1" as="geometry" />
        </mxCell>
        <mxCell id="iAlGHAtXpQ0TuP4XQjKk-16" style="edgeStyle=orthogonalEdgeStyle;rounded=0;orthogonalLoop=1;jettySize=auto;html=1;" edge="1" parent="1" source="NCwgtCWluAgkvSBHD4w2-6" target="iAlGHAtXpQ0TuP4XQjKk-12">
          <mxGeometry relative="1" as="geometry" />
        </mxCell>
        <mxCell id="iAlGHAtXpQ0TuP4XQjKk-19" style="edgeStyle=orthogonalEdgeStyle;rounded=0;orthogonalLoop=1;jettySize=auto;html=1;" edge="1" parent="1" source="NCwgtCWluAgkvSBHD4w2-6" target="iAlGHAtXpQ0TuP4XQjKk-4">
          <mxGeometry relative="1" as="geometry" />
        </mxCell>
        <mxCell id="iAlGHAtXpQ0TuP4XQjKk-20" style="edgeStyle=orthogonalEdgeStyle;rounded=0;orthogonalLoop=1;jettySize=auto;html=1;entryX=0.5;entryY=0;entryDx=0;entryDy=0;" edge="1" parent="1" source="NCwgtCWluAgkvSBHD4w2-6" target="iAlGHAtXpQ0TuP4XQjKk-11">
          <mxGeometry relative="1" as="geometry" />
        </mxCell>
        <mxCell id="NCwgtCWluAgkvSBHD4w2-6" value="Czekoladki" style="rounded=0;whiteSpace=wrap;html=1;fillColor=#ffe6cc;strokeColor=#d79b00;" parent="1" vertex="1">
          <mxGeometry x="50" y="700" width="90" height="30" as="geometry" />
        </mxCell>
        <mxCell id="NCwgtCWluAgkvSBHD4w2-7" value="Nazwa" style="ellipse;whiteSpace=wrap;html=1;aspect=fixed;fillColor=#dae8fc;strokeColor=#6c8ebf;" parent="1" vertex="1">
          <mxGeometry x="175" y="-40" width="50" height="50" as="geometry" />
        </mxCell>
        <mxCell id="NCwgtCWluAgkvSBHD4w2-8" value="Ulica" style="ellipse;whiteSpace=wrap;html=1;aspect=fixed;fillColor=#dae8fc;strokeColor=#6c8ebf;" parent="1" vertex="1">
          <mxGeometry x="-60" y="40" width="50" height="50" as="geometry" />
        </mxCell>
        <mxCell id="NCwgtCWluAgkvSBHD4w2-10" value="Telefon" style="ellipse;whiteSpace=wrap;html=1;aspect=fixed;fillColor=#dae8fc;strokeColor=#6c8ebf;" parent="1" vertex="1">
          <mxGeometry x="-40" y="-50" width="60" height="60" as="geometry" />
        </mxCell>
        <mxCell id="NCwgtCWluAgkvSBHD4w2-11" value="Kod" style="ellipse;whiteSpace=wrap;html=1;aspect=fixed;fillColor=#dae8fc;strokeColor=#6c8ebf;" parent="1" vertex="1">
          <mxGeometry x="-10" y="150" width="50" height="50" as="geometry" />
        </mxCell>
        <mxCell id="NCwgtCWluAgkvSBHD4w2-18" value="" style="whiteSpace=wrap;html=1;aspect=fixed;fillColor=#d5e8d4;strokeColor=#82b366;" parent="1" vertex="1">
          <mxGeometry x="250" y="135" width="80" height="80" as="geometry" />
        </mxCell>
        <mxCell id="KM9MwKzlFiGGRbuaxU7h-5" value="" style="edgeStyle=orthogonalEdgeStyle;rounded=0;orthogonalLoop=1;jettySize=auto;html=1;entryX=0;entryY=0.5;entryDx=0;entryDy=0;" parent="1" source="NCwgtCWluAgkvSBHD4w2-19" target="NCwgtCWluAgkvSBHD4w2-2" edge="1">
          <mxGeometry relative="1" as="geometry">
            <mxPoint x="418" y="205" as="targetPoint" />
          </mxGeometry>
        </mxCell>
        <mxCell id="KM9MwKzlFiGGRbuaxU7h-7" value="" style="edgeStyle=orthogonalEdgeStyle;rounded=0;orthogonalLoop=1;jettySize=auto;html=1;entryX=1;entryY=0.5;entryDx=0;entryDy=0;" parent="1" source="NCwgtCWluAgkvSBHD4w2-19" target="dBQZkuX5FvPiXk4gj8YH-4" edge="1">
          <mxGeometry relative="1" as="geometry" />
        </mxCell>
        <mxCell id="NCwgtCWluAgkvSBHD4w2-19" value="Tworzy" style="rhombus;whiteSpace=wrap;html=1;fillColor=#d5e8d4;strokeColor=#82b366;" parent="1" vertex="1">
          <mxGeometry x="250" y="135" width="80" height="80" as="geometry" />
        </mxCell>
        <mxCell id="NCwgtCWluAgkvSBHD4w2-24" value="IDKlienta" style="ellipse;whiteSpace=wrap;html=1;aspect=fixed;fillColor=#f8cecc;strokeColor=#b85450;fontStyle=4" parent="1" vertex="1">
          <mxGeometry x="70" y="175" width="60" height="60" as="geometry" />
        </mxCell>
        <mxCell id="NCwgtCWluAgkvSBHD4w2-27" value="&lt;u&gt;IDZamownia&lt;/u&gt;" style="ellipse;whiteSpace=wrap;html=1;aspect=fixed;fillColor=#f8cecc;strokeColor=#b85450;" parent="1" vertex="1">
          <mxGeometry x="360" y="-60" width="80" height="80" as="geometry" />
        </mxCell>
        <mxCell id="NCwgtCWluAgkvSBHD4w2-28" value="IDKlienta" style="ellipse;whiteSpace=wrap;html=1;aspect=fixed;fillColor=#f8cecc;strokeColor=#b85450;fontStyle=4" parent="1" vertex="1">
          <mxGeometry x="520" y="-85" width="60" height="60" as="geometry" />
        </mxCell>
        <mxCell id="NCwgtCWluAgkvSBHD4w2-29" value="DataRealizacji" style="ellipse;whiteSpace=wrap;html=1;aspect=fixed;fillColor=#dae8fc;strokeColor=#6c8ebf;" parent="1" vertex="1">
          <mxGeometry x="432.5" y="-170" width="85" height="85" as="geometry" />
        </mxCell>
        <mxCell id="NCwgtCWluAgkvSBHD4w2-56" style="edgeStyle=orthogonalEdgeStyle;rounded=0;orthogonalLoop=1;jettySize=auto;html=1;entryX=0.5;entryY=0;entryDx=0;entryDy=0;" parent="1" source="NCwgtCWluAgkvSBHD4w2-35" target="NCwgtCWluAgkvSBHD4w2-3" edge="1">
          <mxGeometry relative="1" as="geometry" />
        </mxCell>
        <mxCell id="NCwgtCWluAgkvSBHD4w2-35" value="" style="whiteSpace=wrap;html=1;aspect=fixed;fillColor=#d5e8d4;strokeColor=#82b366;" parent="1" vertex="1">
          <mxGeometry x="600" y="175" width="80" height="80" as="geometry" />
        </mxCell>
        <mxCell id="NCwgtCWluAgkvSBHD4w2-34" value="Posiada" style="rhombus;whiteSpace=wrap;html=1;fillColor=#d5e8d4;strokeColor=#82b366;" parent="1" vertex="1">
          <mxGeometry x="600" y="175" width="80" height="80" as="geometry" />
        </mxCell>
        <mxCell id="NCwgtCWluAgkvSBHD4w2-42" value="" style="whiteSpace=wrap;html=1;aspect=fixed;fillColor=#d5e8d4;strokeColor=#82b366;" parent="1" vertex="1">
          <mxGeometry x="600" y="450" width="80" height="80" as="geometry" />
        </mxCell>
        <mxCell id="NCwgtCWluAgkvSBHD4w2-58" style="edgeStyle=orthogonalEdgeStyle;rounded=0;orthogonalLoop=1;jettySize=auto;html=1;entryX=1;entryY=0.5;entryDx=0;entryDy=0;" parent="1" source="NCwgtCWluAgkvSBHD4w2-43" target="NCwgtCWluAgkvSBHD4w2-4" edge="1">
          <mxGeometry relative="1" as="geometry" />
        </mxCell>
        <mxCell id="NCwgtCWluAgkvSBHD4w2-43" value="Posiada" style="rhombus;whiteSpace=wrap;html=1;fillColor=#d5e8d4;strokeColor=#82b366;" parent="1" vertex="1">
          <mxGeometry x="600" y="450" width="80" height="80" as="geometry" />
        </mxCell>
        <mxCell id="NCwgtCWluAgkvSBHD4w2-44" value="" style="whiteSpace=wrap;html=1;aspect=fixed;fillColor=#d5e8d4;strokeColor=#82b366;" parent="1" vertex="1">
          <mxGeometry x="160" y="520" width="80" height="80" as="geometry" />
        </mxCell>
        <mxCell id="iAlGHAtXpQ0TuP4XQjKk-18" style="edgeStyle=orthogonalEdgeStyle;rounded=0;orthogonalLoop=1;jettySize=auto;html=1;entryX=1;entryY=0.5;entryDx=0;entryDy=0;" edge="1" parent="1" source="NCwgtCWluAgkvSBHD4w2-45" target="NCwgtCWluAgkvSBHD4w2-6">
          <mxGeometry relative="1" as="geometry" />
        </mxCell>
        <mxCell id="NCwgtCWluAgkvSBHD4w2-45" value="Odnosza sie do" style="rhombus;whiteSpace=wrap;html=1;fillColor=#d5e8d4;strokeColor=#82b366;" parent="1" vertex="1">
          <mxGeometry x="160" y="520" width="80" height="80" as="geometry" />
        </mxCell>
        <mxCell id="NCwgtCWluAgkvSBHD4w2-61" style="edgeStyle=orthogonalEdgeStyle;rounded=0;orthogonalLoop=1;jettySize=auto;html=1;" parent="1" source="NCwgtCWluAgkvSBHD4w2-46" target="NCwgtCWluAgkvSBHD4w2-5" edge="1">
          <mxGeometry relative="1" as="geometry" />
        </mxCell>
        <mxCell id="NCwgtCWluAgkvSBHD4w2-46" value="" style="whiteSpace=wrap;html=1;aspect=fixed;fillColor=#d5e8d4;strokeColor=#82b366;" parent="1" vertex="1">
          <mxGeometry x="418" y="320" width="80" height="80" as="geometry" />
        </mxCell>
        <mxCell id="NCwgtCWluAgkvSBHD4w2-47" value="Posiada" style="rhombus;whiteSpace=wrap;html=1;fillColor=#d5e8d4;strokeColor=#82b366;" parent="1" vertex="1">
          <mxGeometry x="418" y="320" width="80" height="80" as="geometry" />
        </mxCell>
        <mxCell id="NCwgtCWluAgkvSBHD4w2-64" value="IDZamowienia" style="ellipse;whiteSpace=wrap;html=1;aspect=fixed;fillColor=#f8cecc;strokeColor=#b85450;fontStyle=4" parent="1" vertex="1">
          <mxGeometry x="800" y="210" width="85" height="85" as="geometry" />
        </mxCell>
        <mxCell id="NCwgtCWluAgkvSBHD4w2-65" value="IDPudelka" style="ellipse;whiteSpace=wrap;html=1;aspect=fixed;fillColor=#f8cecc;strokeColor=#b85450;fontStyle=4" parent="1" vertex="1">
          <mxGeometry x="860" y="345" width="85" height="85" as="geometry" />
        </mxCell>
        <mxCell id="NCwgtCWluAgkvSBHD4w2-66" value="Sztuk" style="ellipse;whiteSpace=wrap;html=1;aspect=fixed;fillColor=#dae8fc;strokeColor=#6c8ebf;fontStyle=0" parent="1" vertex="1">
          <mxGeometry x="770" y="430" width="60" height="60" as="geometry" />
        </mxCell>
        <mxCell id="NCwgtCWluAgkvSBHD4w2-71" value="IDPudelka" style="ellipse;whiteSpace=wrap;html=1;aspect=fixed;fillColor=#f8cecc;strokeColor=#b85450;fontStyle=4" parent="1" vertex="1">
          <mxGeometry x="440" y="730" width="70" height="70" as="geometry" />
        </mxCell>
        <mxCell id="NCwgtCWluAgkvSBHD4w2-73" value="Nazwa" style="ellipse;whiteSpace=wrap;html=1;aspect=fixed;fillColor=#dae8fc;strokeColor=#6c8ebf;fontStyle=0" parent="1" vertex="1">
          <mxGeometry x="360" y="710" width="50" height="50" as="geometry" />
        </mxCell>
        <mxCell id="NCwgtCWluAgkvSBHD4w2-74" value="Opis" style="ellipse;whiteSpace=wrap;html=1;aspect=fixed;fillColor=#dae8fc;strokeColor=#6c8ebf;fontStyle=0" parent="1" vertex="1">
          <mxGeometry x="505" y="670" width="50" height="50" as="geometry" />
        </mxCell>
        <mxCell id="NCwgtCWluAgkvSBHD4w2-75" value="Cena" style="ellipse;whiteSpace=wrap;html=1;aspect=fixed;fillColor=#dae8fc;strokeColor=#6c8ebf;fontStyle=0" parent="1" vertex="1">
          <mxGeometry x="395" y="650" width="50" height="50" as="geometry" />
        </mxCell>
        <mxCell id="NCwgtCWluAgkvSBHD4w2-76" value="Stan" style="ellipse;whiteSpace=wrap;html=1;aspect=fixed;fillColor=#dae8fc;strokeColor=#6c8ebf;fontStyle=0" parent="1" vertex="1">
          <mxGeometry x="320" y="630" width="50" height="50" as="geometry" />
        </mxCell>
        <mxCell id="NCwgtCWluAgkvSBHD4w2-82" value="IDPudelka" style="ellipse;whiteSpace=wrap;html=1;aspect=fixed;fillColor=#dae8fc;strokeColor=#6c8ebf;fontStyle=4" parent="1" vertex="1">
          <mxGeometry x="10" y="310" width="70" height="70" as="geometry" />
        </mxCell>
        <mxCell id="NCwgtCWluAgkvSBHD4w2-84" value="IDKlienta" style="ellipse;whiteSpace=wrap;html=1;aspect=fixed;fillColor=#dae8fc;strokeColor=#6c8ebf;fontStyle=4" parent="1" vertex="1">
          <mxGeometry x="110" y="270" width="70" height="70" as="geometry" />
        </mxCell>
        <mxCell id="NCwgtCWluAgkvSBHD4w2-87" value="DataRalizacji" style="ellipse;whiteSpace=wrap;html=1;aspect=fixed;fillColor=#dae8fc;strokeColor=#6c8ebf;" parent="1" vertex="1">
          <mxGeometry x="20" y="447.5" width="82.5" height="82.5" as="geometry" />
        </mxCell>
        <mxCell id="KM9MwKzlFiGGRbuaxU7h-12" value="" style="edgeStyle=orthogonalEdgeStyle;rounded=0;orthogonalLoop=1;jettySize=auto;html=1;" parent="1" source="dBQZkuX5FvPiXk4gj8YH-4" target="NCwgtCWluAgkvSBHD4w2-9" edge="1">
          <mxGeometry relative="1" as="geometry">
            <mxPoint x="145" y="100" as="sourcePoint" />
            <mxPoint x="200" y="-60" as="targetPoint" />
          </mxGeometry>
        </mxCell>
        <mxCell id="NCwgtCWluAgkvSBHD4w2-9" value="Miejscowosc" style="ellipse;whiteSpace=wrap;html=1;aspect=fixed;fillColor=#dae8fc;strokeColor=#6c8ebf;" parent="1" vertex="1">
          <mxGeometry x="60" y="-105" width="80" height="80" as="geometry" />
        </mxCell>
        <mxCell id="iAlGHAtXpQ0TuP4XQjKk-1" value="Nazwa" style="ellipse;whiteSpace=wrap;html=1;aspect=fixed;fillColor=#dae8fc;strokeColor=#6c8ebf;fontStyle=0" vertex="1" parent="1">
          <mxGeometry x="60" y="910" width="50" height="50" as="geometry" />
        </mxCell>
        <mxCell id="iAlGHAtXpQ0TuP4XQjKk-3" value="Opis" style="ellipse;whiteSpace=wrap;html=1;aspect=fixed;fillColor=#dae8fc;strokeColor=#6c8ebf;fontStyle=0" vertex="1" parent="1">
          <mxGeometry x="60" y="600" width="50" height="50" as="geometry" />
        </mxCell>
        <mxCell id="iAlGHAtXpQ0TuP4XQjKk-4" value="Koszt" style="ellipse;whiteSpace=wrap;html=1;aspect=fixed;fillColor=#dae8fc;strokeColor=#6c8ebf;fontStyle=0" vertex="1" parent="1">
          <mxGeometry x="-120" y="740" width="50" height="50" as="geometry" />
        </mxCell>
        <mxCell id="iAlGHAtXpQ0TuP4XQjKk-5" value="Masa" style="ellipse;whiteSpace=wrap;html=1;aspect=fixed;fillColor=#dae8fc;strokeColor=#6c8ebf;fontStyle=0" vertex="1" parent="1">
          <mxGeometry x="-140" y="600" width="50" height="50" as="geometry" />
        </mxCell>
        <mxCell id="iAlGHAtXpQ0TuP4XQjKk-9" value="RodzajCzekolady" style="ellipse;whiteSpace=wrap;html=1;aspect=fixed;fillColor=#dae8fc;strokeColor=#6c8ebf;fontStyle=0" vertex="1" parent="1">
          <mxGeometry x="-60" y="830" width="110" height="110" as="geometry" />
        </mxCell>
        <mxCell id="iAlGHAtXpQ0TuP4XQjKk-10" value="RodzajOrzechow" style="ellipse;whiteSpace=wrap;html=1;aspect=fixed;fillColor=#dae8fc;strokeColor=#6c8ebf;fontStyle=0" vertex="1" parent="1">
          <mxGeometry x="-80" y="570" width="110" height="110" as="geometry" />
        </mxCell>
        <mxCell id="iAlGHAtXpQ0TuP4XQjKk-11" value="RodzajNadzienia" style="ellipse;whiteSpace=wrap;html=1;aspect=fixed;fillColor=#dae8fc;strokeColor=#6c8ebf;fontStyle=0" vertex="1" parent="1">
          <mxGeometry x="-260" y="740" width="110" height="110" as="geometry" />
        </mxCell>
        <mxCell id="iAlGHAtXpQ0TuP4XQjKk-12" value="IDNadzienia" style="ellipse;whiteSpace=wrap;html=1;aspect=fixed;fillColor=#f8cecc;strokeColor=#b85450;fontStyle=0" vertex="1" parent="1">
          <mxGeometry x="130" y="830" width="85" height="85" as="geometry" />
        </mxCell>
      </root>
    </mxGraphModel>
  </diagram>
</mxfile>
